<?xml version="1.0" standalone="no"?>
<!DOCTYPE svg PUBLIC "-//W3C//DTD SVG 20010904//EN"
 "http://www.w3.org/TR/2001/REC-SVG-20010904/DTD/svg10.dtd">
<svg version="1.0" xmlns="http://www.w3.org/2000/svg"
 width="766.000000pt" height="766.000000pt" viewBox="0 0 766.000000 766.000000"
 preserveAspectRatio="xMidYMid meet">
<metadata>
Created by potrace 1.14, written by Peter Selinger 2001-2017
</metadata>
<g transform="translate(0.000000,766.000000) scale(0.100000,-0.100000)"
fill="#000000" stroke="none">
<path d="M112 7600 c-18 -11 -41 -34 -52 -52 -20 -33 -20 -54 -20 -1833 0
-1779 0 -1800 20 -1833 34 -56 67 -68 203 -76 341 -18 751 -100 1062 -212 504
-182 960 -466 1344 -839 687 -666 1089 -1542 1140 -2481 9 -156 14 -173 75
-218 24 -18 45 -21 163 -24 223 -6 256 17 279 195 41 309 173 574 403 804 208
207 437 331 731 395 127 28 428 26 562 -4 139 -31 237 -66 361 -129 327 -167
575 -457 693 -808 30 -89 41 -145 71 -345 6 -43 61 -97 107 -105 18 -4 88 -5
154 -3 131 3 151 11 196 72 l21 27 3 3681 c2 3621 2 3681 -17 3724 -12 26 -33
52 -53 64 -33 20 -37 20 -3723 20 -3664 0 -3690 0 -3723 -20z m4263 -899 c262
-61 477 -173 663 -346 224 -209 366 -469 429 -781 26 -134 24 -396 -5 -530
-65 -301 -193 -535 -407 -743 -196 -191 -421 -312 -695 -373 -148 -33 -425
-33 -577 0 -463 100 -832 402 -1015 832 -100 233 -135 532 -93 786 19 117 79
303 128 401 204 404 588 688 1042 768 118 21 411 13 530 -14z"/>
</g>
</svg>
